# xmcd CD database file
#
# Track frame offsets:
#	150
#	20406
#	50851
#	69291
#	92847
#	121464
#	142559
#	163660
#	186965
#	205441
#
# Disc length: 3025 seconds
#
# Revision: 0
# Processed by: cddbd v1.5.2PL0 Copyright (c) Steve Scherf et al.
# Submitted via: CDex 1.51
#
DISCID=8b0bcf0a
DTITLE=Wardell and his slammin' Big Band - Maestropiece
DYEAR=2000
DGENRE=Jazz
TTITLE0=El Pavo
TTITLE1=Carzy Mary
TTITLE2=Hail King Zulu
TTITLE3=3 Tenors for Moose
TTITLE4=Chip
TTITLE5=Pass It On
TTITLE6=Frankly Speaking
TTITLE7=Tippy
TTITLE8=Slammin
TTITLE9=Crazy Mary (reprise)
EXTD=YEAR: 2000
EXTT0=
EXTT1=
EXTT2=
EXTT3=
EXTT4=
EXTT5=
EXTT6=
EXTT7=
EXTT8=
EXTT9=
PLAYORDER=
